<svg width="483" height="52" viewBox="0 0 483 52" xmlns="http://www.w3.org/2000/svg">
    <g>
        <path d="M8.44988 19.548C13.8499 19.548 16.4689 16.848 16.4689 13.689C16.4689 6.75 5.47988 9.153 5.47988 5.67C5.47988 4.482 6.47888 3.51 9.07088 3.51C10.7449 3.51 12.5539 3.996 14.3089 4.995L15.6589 1.674C13.9039 0.566999 11.4739 0 9.09788 0C3.72488 0 1.13288 2.673 1.13288 5.886C1.13288 12.906 12.1219 10.476 12.1219 14.013C12.1219 15.174 11.0689 16.038 8.47688 16.038C6.20888 16.038 3.83288 15.228 2.23988 14.067L0.754883 17.361C2.42888 18.657 5.45288 19.548 8.44988 19.548Z" fill="white"/>
        <path d="M28.9577 19.224H33.3317V0.323998H28.9577V19.224Z" fill="white"/>
        <path d="M47.317 19.224H61.168V15.66H51.691V0.323998H47.317V19.224Z" fill="white"/>
        <path d="M73.112 19.224H77.486V0.323998H73.112V19.224Z" fill="white"/>
        <path d="M100.516 19.548C103.81 19.548 106.537 18.36 108.319 16.173L105.511 13.581C104.242 15.066 102.649 15.822 100.759 15.822C97.2223 15.822 94.7113 13.338 94.7113 9.774C94.7113 6.21 97.2223 3.726 100.759 3.726C102.649 3.726 104.242 4.482 105.511 5.94L108.319 3.348C106.537 1.188 103.81 0 100.543 0C94.6573 0 90.2833 4.077 90.2833 9.774C90.2833 15.471 94.6573 19.548 100.516 19.548Z" fill="white"/>
        <path d="M129.531 19.548C135.471 19.548 139.872 15.417 139.872 9.774C139.872 4.131 135.471 0 129.531 0C123.564 0 119.19 4.158 119.19 9.774C119.19 15.39 123.564 19.548 129.531 19.548ZM129.531 15.822C126.156 15.822 123.618 13.365 123.618 9.774C123.618 6.183 126.156 3.726 129.531 3.726C132.906 3.726 135.444 6.183 135.444 9.774C135.444 13.365 132.906 15.822 129.531 15.822Z" fill="white"/>
        <path d="M165.673 0.323998V11.799L156.277 0.323998H152.659V19.224H156.979V7.749L166.402 19.224H169.993V0.323998H165.673Z" fill="white"/>
        <path d="M208.878 9.396C210.417 8.586 211.389 7.128 211.389 5.238C211.389 2.295 208.959 0.323998 204.234 0.323998H195C195 7.70491 195 11.8431 195 19.224H204.774C209.742 19.224 212.334 17.334 212.334 14.067C212.334 11.691 210.984 10.071 208.878 9.396ZM203.694 3.618C205.827 3.618 206.988 4.347 206.988 5.832C206.988 7.317 205.827 8.073 203.694 8.073H199.347V3.618H203.694ZM204.45 15.93H199.347V11.259H204.45C206.718 11.259 207.933 12.015 207.933 13.608C207.933 15.228 206.718 15.93 204.45 15.93Z" fill="white"/>
        <path d="M225.146 19.224H238.997V15.66H229.52V0.323998H225.146V19.224Z" fill="white"/>
        <path d="M259.777 19.548C265.717 19.548 270.118 15.417 270.118 9.774C270.118 4.131 265.717 0 259.777 0C253.81 0 249.436 4.158 249.436 9.774C249.436 15.39 253.81 19.548 259.777 19.548ZM259.777 15.822C256.402 15.822 253.864 13.365 253.864 9.774C253.864 6.183 256.402 3.726 259.777 3.726C263.152 3.726 265.69 6.183 265.69 9.774C265.69 13.365 263.152 15.822 259.777 15.822Z" fill="white"/>
        <path d="M291.95 19.548C295.244 19.548 297.971 18.36 299.753 16.173L296.945 13.581C295.676 15.066 294.083 15.822 292.193 15.822C288.656 15.822 286.145 13.338 286.145 9.774C286.145 6.21 288.656 3.726 292.193 3.726C294.083 3.726 295.676 4.482 296.945 5.94L299.753 3.348C297.971 1.188 295.244 0 291.977 0C286.091 0 281.717 4.077 281.717 9.774C281.717 15.471 286.091 19.548 291.95 19.548Z" fill="white"/>
        <path d="M325.14 19.224H330.243L321.954 8.748L329.784 0.323998H324.924L316.554 9.153V0.323998H312.207V19.224H316.554V14.445L319.092 11.799L325.14 19.224Z" fill="white"/>
        <path d="M368.878 9.396C370.417 8.586 371.389 7.128 371.389 5.238C371.389 2.295 368.959 0.323998 364.234 0.323998H355V19.224H364.774C369.742 19.224 372.334 17.334 372.334 14.067C372.334 11.691 370.984 10.071 368.878 9.396ZM363.694 3.618C365.827 3.618 366.988 4.347 366.988 5.832C366.988 7.317 365.827 8.073 363.694 8.073H359.347V3.618H363.694ZM364.45 15.93H359.347V11.259H364.45C366.718 11.259 367.933 12.015 367.933 13.608C367.933 15.228 366.718 15.93 364.45 15.93Z" fill="#805EEF"/>
        <path d="M389.493 15.714V11.34H398.268V7.938H389.493V3.834H399.428V0.323998H385.146V19.224H399.78V15.714H389.493Z" fill="#805EEF"/>
        <path d="M426.881 19.224H431.471L423.02 0.323998H418.7L410.276 19.224H414.758L416.432 15.174H425.207L426.881 19.224ZM417.836 11.853L420.833 4.617L423.83 11.853H417.836Z" fill="#805EEF"/>
        <path d="M445.897 19.224H450.271V3.888H456.319V0.323998H439.849V3.888H445.897V19.224Z" fill="#805EEF"/>
        <path d="M474.251 19.548C479.651 19.548 482.27 16.848 482.27 13.689C482.27 6.75 471.281 9.153 471.281 5.67C471.281 4.482 472.28 3.51 474.872 3.51C476.546 3.51 478.355 3.996 480.11 4.995L481.46 1.674C479.705 0.566999 477.275 0 474.899 0C469.526 0 466.934 2.673 466.934 5.886C466.934 12.906 477.923 10.476 477.923 14.013C477.923 15.174 476.87 16.038 474.278 16.038C472.01 16.038 469.634 15.228 468.041 14.067L466.556 17.361C468.23 18.657 471.254 19.548 474.251 19.548Z" fill="#805EEF"/>
        <path d="M28.6522 48.2175H0V52H28.6522V48.2175Z" fill="#805EEF"/>
    </g>
</svg>
