<svg width="266" height="124" viewBox="0 0 266 124" xmlns="http://www.w3.org/2000/svg">
    <g>
        <path fill-rule="evenodd" clip-rule="evenodd" d="M21.8206 8.18775L24.3921 3.0045C21.4438 1.18654 17.3131 0 13.1899 0C6.36956 0 1.7734 3.16408 1.7734 8.18775C1.7734 17.9992 17.4831 14.9531 17.4831 20.171C17.4831 21.871 15.8426 22.8217 13.1012 22.8217C9.98293 22.8217 5.68974 21.198 2.65273 18.6722L0 23.7723C3.32518 26.4229 8.17255 28.1645 13.0125 28.1645C19.5447 28.1645 24.5546 25.2363 24.5546 19.8172C24.599 9.85307 8.8893 12.698 8.8893 7.59797C8.8893 6.09226 10.4041 5.34287 12.6357 5.34287C14.9929 5.34287 18.7023 6.44612 21.8206 8.18775ZM45.6585 27.9633H52.3162V0.277568H45.6585V27.9633ZM75.2674 0.277568V27.9633H94.5609V22.5025H81.9178V0.277568H75.2674ZM114.941 27.9633H121.598V0.277568H114.941V27.9633ZM165.905 9.09673L169.777 4.66979C166.873 1.85958 162.409 0.083262 158.153 0.083262C149.227 0.083262 142.443 6.09224 142.443 14.0857C142.443 22.1139 149.101 28.2478 157.902 28.2478C162.195 28.2478 166.703 26.3119 169.821 23.3074L165.905 19.3106C163.799 21.2882 160.895 22.551 158.242 22.551C153.188 22.551 149.271 18.8319 149.271 14.0094C149.271 9.18695 153.188 5.50245 158.242 5.50245C160.976 5.49551 163.88 6.91795 165.905 9.09673ZM204.129 0.0763164C195.114 0.0763164 188.294 6.05063 188.294 14.1135C188.294 22.1417 195.114 28.2339 204.129 28.2339C213.144 28.2339 219.965 22.107 219.965 14.1135C219.965 6.09227 213.144 0.0763164 204.129 0.0763164ZM204.218 5.53713C209.147 5.53713 213.144 9.25632 213.144 14.1204C213.144 18.9845 209.147 22.78 204.218 22.78C199.289 22.78 195.122 18.9845 195.122 14.1204C195.122 9.25632 199.245 5.53713 204.218 5.53713ZM239.295 0.277568V27.9633H245.657V10.207L259.933 27.9633H266V0.277568H259.682V18.0755L245.362 0.277568H239.295Z" fill="white"/>
        <path fill-rule="evenodd" clip-rule="evenodd" d="M13.561 52.0062H0V82.0803H14.0266C20.8477 82.0803 25.1488 78.8995 25.1488 73.744C25.1488 69.7944 22.8283 66.8699 19.0001 66.1388C22.1631 65.2795 24.0994 62.7469 24.0994 59.521C24.092 54.8855 20.0496 52.0062 13.561 52.0062ZM13.2284 64.1187H6.65857V57.5462H13.2284C15.7559 57.5009 17.2709 58.7069 17.2709 60.7722C17.2709 62.8751 15.7559 64.1187 13.2284 64.1187ZM13.2284 76.5404H6.65857V69.41H13.2284C16.3471 69.3648 18.2833 70.6989 18.2833 72.8922C18.2833 75.2062 16.3471 76.5404 13.2284 76.5404ZM46.4178 52.0062V82.0803H65.7135V76.1484H53.0763V52.0062H46.4178ZM99.834 51.7876C90.818 51.7876 83.9968 58.2773 83.9968 67.0357C83.9968 75.7565 90.818 82.3743 99.834 82.3743C108.85 82.3743 115.671 75.7113 115.671 67.0357C115.671 58.3225 108.85 51.7876 99.834 51.7876ZM99.9153 57.7195C104.845 57.7195 108.843 61.7595 108.843 67.0432C108.843 72.3269 104.837 76.4499 99.9153 76.4499C94.9935 76.4499 90.818 72.3269 90.818 67.0432C90.818 61.7595 94.9491 57.7195 99.9153 57.7195ZM157.817 61.5862L161.69 56.7773C158.786 53.7247 154.314 51.7951 150.065 51.7951C141.138 51.7951 134.354 58.3225 134.354 67.0056C134.354 75.7263 141.012 82.3894 149.814 82.3894C154.108 82.3894 158.616 80.2864 161.734 77.0228L157.817 72.6812C155.711 74.8294 152.807 76.2012 150.154 76.2012C145.099 76.2012 141.182 72.1611 141.182 66.9227C141.182 61.6842 145.099 57.6894 150.154 57.6894C152.888 57.6743 155.793 59.2194 157.817 61.5862ZM209.504 82.0803L197.665 64.5484L208.743 52.0062H201.035L188.775 65.6715V52.0062H182.116V82.0803H188.775V74.6485L193.032 69.8396L201.501 82.0803H209.504Z" fill="white"/>
        <path d="M44.9782 117.07L0.198975 117.44L0.247931 123.352L45.0271 122.981L44.9782 117.07Z" fill="#805EEF"/>
    </g>
</svg>
